<svg width="824" height="824" viewBox="0 0 824 824" fill="none" xmlns="http://www.w3.org/2000/svg">
<g clip-path="url(#clip0_1_31)">
<path d="M552.08 233.255L425.311 360.025L404.394 339.108L531.163 211.705L552.08 233.255Z" fill="#351B6F"/>
<path d="M594.548 275.089L467.778 402.492L446.228 380.942L573.631 254.172L594.548 275.089Z" fill="#FAA61A"/>
<path d="M361.926 423.409L234.523 550.812L213.606 529.262L340.375 402.492L361.926 423.409Z" fill="#EF4124"/>
<path d="M404.394 465.877L276.991 593.28L256.074 571.729L382.843 444.96L404.394 465.877Z" fill="#62BB46"/>
<path d="M573.631 550.812L446.228 423.409L467.778 402.492L594.548 529.262L573.631 550.812Z" fill="#B8292F"/>
<path d="M531.163 593.28L404.394 465.877L425.311 444.96L552.08 571.729L531.163 593.28Z" fill="#3C5DAA"/>
<path d="M382.843 360.025L256.074 233.255L276.991 211.705L404.394 339.108L382.843 360.025Z" fill="#007F5B"/>
<path d="M340.375 402.492L213.606 275.089L234.523 254.172L361.926 380.942L340.375 402.492Z" fill="#F173AC"/>
<path d="M700.4 677.582L637.015 614.197L658.566 593.28L721.951 656.665L700.4 677.582Z" fill="#62BB46"/>
<path d="M658.566 720.049L594.548 656.665L616.098 635.114L679.483 699.132L658.566 720.049Z" fill="#351B6F"/>
<path d="M192.689 169.237L128.671 105.852L150.222 84.9354L213.606 148.32L192.689 169.237Z" fill="#EF4124"/>
<path d="M150.222 211.705L86.8369 148.32L107.754 127.403L171.138 190.788L150.222 211.705Z" fill="#351B6F"/>
<path d="M679.483 105.852L616.098 169.237L594.548 148.32L658.566 84.9354L679.483 105.852Z" fill="#B8292F"/>
<path d="M721.951 148.32L658.566 211.705L637.015 190.788L700.4 127.403L721.951 148.32Z" fill="#007F5B"/>
<path d="M171.138 614.197L107.754 677.582L86.8369 656.665L150.222 593.28L171.138 614.197Z" fill="#007F5B"/>
<path d="M213.606 656.665L150.222 720.049L128.671 699.132L192.689 635.114L213.606 656.665Z" fill="#00AEE6"/>
<path d="M448.763 806.886H418.972V716.88H448.763V806.886Z" fill="#FAA61A"/>
<path d="M389.182 806.886H359.391V716.88H389.182V806.886Z" fill="#EF4124"/>
<path d="M448.763 88.1047H418.972V-1.90149H448.763V88.1047Z" fill="#62BB46"/>
<path d="M389.182 88.1047H359.391V-1.90149H389.182V88.1047Z" fill="#FAA61A"/>
<path d="M808.154 387.28H718.782V357.489H808.154V387.28Z" fill="#F173AC"/>
<path d="M808.154 447.495H718.782V417.705H808.154V447.495Z" fill="#A70050"/>
<path d="M90.0062 387.28H0V357.489H90.0062V387.28Z" fill="#3C5DAA"/>
<path d="M90.0062 447.495H0V417.705H90.0062V447.495Z" fill="#00AEE6"/>
</g>
<defs>
<clipPath id="clip0_1_31">
<rect width="824" height="824" fill="white"/>
</clipPath>
</defs>
</svg>
